# xmcd
#
# Track frame offsets: 
#        150
#        17610
#        31163
#        45360
#        65348
#        82256
#        100624
#        121586
#        139828
#        158053
#        172632
#        185559
#        202281
#        221607
#        234688
#        249585
#        262279
#        278194
#        300841
#        313184
#        331233
#
# Disc length: 4627 seconds
#
# Revision: 5
# Processed by: cddbd v1.5.2PL0 Copyright (c) Steve Scherf et al.
# Submitted via: ExactAudioCopyFreeDBPlugin 1.0
#
DISCID=21121115
DTITLE=Lightnin' Hopkins - Fishing Clothes: The Jewel Recordings 1965-
DTITLE=69 [CD1]
DYEAR=2001
DGENRE=Blues
TTITLE0=Wig Wearing Woman
TTITLE1=Move On Out, Part 1
TTITLE2=Move On Out, Part 2
TTITLE3=Back Door Friend
TTITLE4=Fishing Clothes (Unedited Version)
TTITLE5=Gamblers Blues
TTITLE6=Moaning Blues (aka Morning Blues)
TTITLE7=Found My Baby Crying
TTITLE8=My Money Is What You Want
TTITLE9=Race Track
TTITLE10=Long Way From Home
TTITLE11=I'm Tired Of Trouble
TTITLE12=Vietnam War, Parts 1 and 2
TTITLE13=Lightnin' Strikes One More Time
TTITLE14=Walkin' Blues
TTITLE15=Talkin' Some Sense
TTITLE16=Lonesome Lightnin'
TTITLE17=My Suggestion
TTITLE18=Uncle Stan The Hip Hit Record Man
TTITLE19=You're Gonna Miss Me
TTITLE20=The Purple Puppy
EXTD=YEAR: 2001
EXTT0=
EXTT1=
EXTT2=
EXTT3=
EXTT4=
EXTT5=
EXTT6=
EXTT7=
EXTT8=
EXTT9=
EXTT10=
EXTT11=
EXTT12=
EXTT13=
EXTT14=
EXTT15=
EXTT16=
EXTT17=
EXTT18=
EXTT19=
EXTT20=
PLAYORDER=
